HIERARCHY
ROOT Hips
{
	OFFSET 0.000000 0.000000 0.000000
	CHANNELS 6 Xposition Yposition Zposition Zrotation Yrotation Xrotation 
	JOINT LHipJoint
	{
		OFFSET 0.000000 0.000000 0.000000
		CHANNELS 3 Zrotation Yrotation Xrotation
		JOINT LeftUpLeg
		{
			OFFSET 1.363060 -1.794630 0.839290
			CHANNELS 3 Zrotation Yrotation Xrotation
			JOINT LeftLeg
			{
				OFFSET 2.448110 -6.726130 0.000000
				CHANNELS 3 Zrotation Yrotation Xrotation
				JOINT LeftFoot
				{
					OFFSET 2.562200 -7.039590 0.000000
					CHANNELS 3 Zrotation Yrotation Xrotation
					JOINT LeftToeBase
					{
						OFFSET 0.157640 -0.433110 2.322550
						CHANNELS 3 Zrotation Yrotation Xrotation
						End Site
						{
							OFFSET 0.000000 0.000000 0.000000
						}
					}
				}
			}
		}
	}
	JOINT RHipJoint
	{
		OFFSET 0.000000 0.000000 0.000000
		CHANNELS 3 Zrotation Yrotation Xrotation
		JOINT RightUpLeg
		{
			OFFSET -1.305520 -1.794630 0.839290
			CHANNELS 3 Zrotation Yrotation Xrotation
			JOINT RightLeg
			{
				OFFSET -2.542530 -6.985550 0.000000
				CHANNELS 3 Zrotation Yrotation Xrotation
				JOINT RightFoot
				{
					OFFSET -2.568260 -7.056230 0.000000
					CHANNELS 3 Zrotation Yrotation Xrotation
					JOINT RightToeBase
					{
						OFFSET -0.164730 -0.452590 2.363150
						CHANNELS 3 Zrotation Yrotation Xrotation
						End Site
						{
							OFFSET 0.000000 0.000000 0.000000
						}
					}
				}
			}
		}
	}
}
MOTION
Frames: 34
Frame Time: 0.008333
0.714299 16.614397 0.217246 51.320467 78.938848 67.623718 -11.325247 5.589436 0.921486 -1.677168 11.985491 -5.522385 -0.693262 1.572137 32.054869 0.692408 -8.262197 23.713928 -4.306900 0.000000 -54.778501 9.070130 -0.857079 3.737241 13.996722 5.469756 -39.426873 1.405026 -1.654484 37.914862 -3.561246 -9.504519 -23.304359 -177.485100 -0.000000 -12.991500
0.899927 16.612988 0.309179 54.045767 79.320775 70.051319 -11.340309 5.460825 0.943622 -0.959570 11.525802 -6.281383 -0.548722 1.623003 33.989272 0.767374 -7.235484 23.454874 -3.845400 0.000000 -52.094200 9.052511 -0.920522 3.551775 14.399986 5.007968 -38.099865 1.457908 -1.610308 37.743754 -3.687180 -9.791226 -24.326129 -177.179400 -0.000000 -12.527400
1.084668 16.618302 0.404167 57.091415 79.691253 72.832288 -11.325680 5.314101 0.966891 -0.322669 11.056358 -7.149927 -0.407153 1.666309 35.858604 0.851539 -5.714689 23.014029 -3.145600 -0.000000 -50.015801 9.044613 -0.993666 3.386996 14.808128 4.505197 -36.678368 1.523706 -1.530491 37.151170 -3.812883 -10.097800 -25.181948 -176.898800 0.000001 -12.040700
1.268681 16.629436 0.502488 60.309851 80.010376 75.825059 -11.276739 5.154944 0.991272 0.198010 10.585631 -8.111282 -0.273097 1.701895 37.634550 0.948653 -3.753045 22.388383 -2.247300 -0.000001 -48.371100 9.059020 -1.065914 3.250088 15.177693 4.005146 -35.207244 1.588973 -1.423199 36.244329 -3.931782 -10.419289 -25.845539 -176.653200 0.000000 -11.662300
1.451964 16.645649 0.603903 63.445083 80.249320 78.779740 -11.196296 4.988574 1.015363 0.582382 10.126609 -9.144122 -0.151257 1.729770 39.285661 1.063091 -1.440747 21.592258 -1.211600 0.000000 -47.040200 9.100767 -1.129792 3.146266 15.479924 3.557694 -33.719599 1.643062 -1.296060 35.124173 -4.037371 -10.746787 -26.299126 -176.451900 -0.000000 -11.496100
1.634369 16.666412 0.707793 66.185391 80.395360 81.388569 -11.093839 4.818265 1.035987 0.828292 9.697283 -10.226778 -0.046114 1.750504 40.786547 1.196724 1.097633 20.639132 -0.114100 0.000000 -45.785400 9.166210 -1.182740 3.079084 15.702589 3.214431 -32.235920 1.678762 -1.156461 33.876491 -4.124467 -11.071304 -26.531076 -176.303500 0.000001 -11.563900
1.815587 16.691202 0.813687 68.262457 80.439429 83.385364 -10.977104 4.647467 1.051937 0.927845 9.302826 -11.334619 0.039299 1.764208 42.109929 1.349037 3.731263 19.568080 0.971800 0.000000 -44.479400 9.252654 -1.223889 3.048106 15.830351 3.004194 -30.777538 1.692467 -1.012953 32.581638 -4.186098 -11.369305 -26.542262 -176.217300 -0.000001 -11.813300
1.995151 16.719749 0.920854 69.475988 80.388090 84.568431 -10.856121 4.477132 1.060462 0.892006 8.950053 -12.444817 0.103780 1.771351 43.238600 1.515141 6.321972 18.420411 1.978200 0.000001 -42.980800 9.351528 -1.256822 3.050559 15.866348 2.946911 -29.351932 1.684919 -0.872735 31.290921 -4.217693 -11.620904 -26.338810 -176.199300 -0.000000 -12.142200
2.172617 16.751781 1.028595 69.736740 80.250811 84.844796 -10.738351 4.307812 1.059379 0.737026 8.639603 -13.536737 0.147801 1.772438 44.160926 1.686839 8.746928 17.245669 2.854900 -0.000000 -41.243000 9.454831 -1.286077 3.080599 15.820463 3.043078 -27.960547 1.660096 -0.741448 30.033844 -4.215453 -11.803794 -25.934384 -176.253200 -0.000000 -12.433400
2.347576 16.787115 1.136335 69.058934 80.037555 84.222235 -10.628645 4.140078 1.047201 0.483362 8.368535 -14.593568 0.173103 1.768127 44.871538 1.854105 10.909274 16.096133 3.573099 0.000000 -39.328200 9.555658 -1.316059 3.130003 15.709387 3.275816 -26.598680 1.624245 -0.622338 28.818209 -4.176867 -11.896485 -25.349007 -176.378200 0.000000 -12.605200
2.519647 16.825522 1.243613 67.535807 79.754672 82.784905 -10.529664 3.974915 1.022749 0.154270 8.133374 -15.603292 0.181512 1.759644 45.373874 2.005952 12.739132 15.002966 4.120600 0.000000 -37.243000 9.648900 -1.350369 3.189127 15.552976 3.614369 -25.256811 1.583958 -0.516354 27.633854 -4.100302 -11.882222 -24.597389 -176.571500 0.000001 -12.537300
2.688694 16.866679 1.350186 65.314616 79.403931 80.671883 -10.441627 3.813867 0.986839 -0.230815 7.926130 -16.558661 0.175162 1.747872 45.673837 2.133882 14.203517 13.995342 4.503800 0.000000 -35.140200 9.732242 -1.391016 3.247987 15.369871 4.017430 -23.927092 1.545424 -0.422697 26.463161 -3.985568 -11.749040 -23.697280 -176.826100 -0.000000 -12.187900
2.854767 16.910223 1.455917 62.571481 78.984861 78.052666 -10.363415 3.658465 0.942204 -0.655438 7.737267 -17.461004 0.155728 1.733483 45.782876 2.231954 15.296882 13.081738 4.738000 0.000001 -33.143900 9.805299 -1.439063 3.298353 15.176571 4.440814 -22.606176 1.513505 -0.339551 25.287735 -3.834242 -11.492775 -22.666220 -177.131299 0.000000 -11.570801
3.018133 16.955668 1.560850 59.486635 78.495997 75.102909 -10.292848 3.510147 0.892513 -1.108405 7.557423 -18.316663 0.124090 1.716945 45.715622 2.297281 16.036659 12.248625 4.841100 0.000000 -31.307200 9.869651 -1.494817 3.334184 14.984928 4.842606 -21.296437 1.491058 -0.265032 24.093351 -3.649011 -11.117148 -21.514966 -177.475500 0.000000 -10.691400
3.179184 17.002475 1.665110 56.228807 77.934926 71.987438 -10.226689 3.370236 0.842551 -1.584786 7.374510 -19.131975 0.080937 1.698031 45.484256 2.330855 16.463363 11.481117 4.836401 -0.000000 -29.749500 9.929244 -1.557914 3.351022 14.798908 5.184652 -20.003391 1.478792 -0.198062 22.875281 -3.433050 -10.630902 -20.248859 -177.846800 0.000000 -9.544600
3.338583 17.050031 1.768863 52.938537 77.304032 68.851313 -10.162564 3.238792 0.798867 -2.081191 7.176950 -19.926393 0.026232 1.676081 45.105478 2.335540 16.624077 10.744127 4.742100 0.000000 -28.450500 9.986668 -1.628355 3.350065 14.621805 5.445262 -18.746306 1.476147 -0.137868 21.640469 -3.192129 -10.050775 -18.878962 -178.230899 -0.000000 -8.204400
3.496927 17.097691 1.872274 49.721023 76.605644 65.801198 -10.097551 3.115882 0.767303 -2.598267 6.951684 -20.709774 -0.039758 1.649912 44.588476 2.316892 16.578443 10.017175 4.581299 0.000000 -27.486000 10.045742 -1.705501 3.332839 14.449536 5.611323 -17.540888 1.481128 -0.085004 20.405697 -2.931827 -9.394144 -17.414181 -178.614900 -0.000000 -6.717301
3.654922 17.144872 1.975439 46.642876 75.845689 62.911134 -10.029960 3.000440 0.754021 -3.134851 6.685960 -21.498095 -0.117017 1.618182 43.942426 2.280857 16.381642 9.276386 4.372700 0.000000 -26.839200 10.107915 -1.788876 3.304771 14.278824 5.688526 -16.407826 1.491204 -0.040231 19.194827 -2.659380 -8.682504 -15.869190 -178.985599 0.000000 -5.164601
3.813125 17.190984 2.078395 43.738532 75.030697 60.221539 -9.958490 2.891303 0.764328 -3.688361 6.366184 -22.300850 -0.205285 1.579542 43.172641 2.233522 16.083931 8.506778 4.133400 0.000000 -26.470200 10.173529 -1.877524 3.272303 14.104736 5.695775 -15.363583 1.503550 -0.004715 18.035585 -2.382096 -7.936574 -14.262416 -179.331100 -0.000000 -3.628800
3.972178 17.235489 2.181035 41.013813 74.169002 57.748342 -9.883122 2.786369 0.802899 -4.250821 5.977526 -23.128759 -0.303764 1.532847 42.282321 2.180441 15.725434 7.708944 3.879100 -0.000000 -26.374100 10.240132 -1.970075 3.243333 13.926215 5.667713 -14.422151 1.515500 0.020917 16.952958 -2.107764 -7.179022 -12.614286 -179.642300 -0.000000 -2.184900
4.132433 17.277955 2.283207 38.461178 73.268492 55.489812 -9.803790 2.683835 0.872783 -4.810873 5.504831 -23.983531 -0.411360 1.477319 41.271560 2.125950 15.334566 6.890632 3.622000 -0.000000 -26.490600 10.304853 -2.064470 3.224211 13.741898 5.643429 -13.587430 1.524639 0.036178 15.967195 -1.842838 -6.428740 -10.944617 -179.913300 -0.000000 -0.878200
4.293965 17.317988 2.384793 36.070956 72.336391 53.435580 -9.719884 2.582672 0.976015 -5.355141 4.934119 -24.858902 -0.526863 1.412368 40.140611 2.072674 14.926338 6.059391 3.369100 0.000000 -26.677499 10.365470 -2.158752 3.219896 13.549969 5.660344 -12.852955 1.528780 0.040739 15.091189 -1.591868 -5.699518 -9.268618 -0.141600 0.000000 -0.288400
4.456962 17.355196 2.485546 33.825484 71.381709 51.571637 -9.632170 2.480864 1.112929 -5.863714 4.252187 -25.751227 -0.648189 1.338050 38.889955 2.022346 14.508513 5.240832 3.128700 -0.000000 -26.891200 10.417826 -2.250146 3.232918 13.353627 5.756004 -12.210102 1.526421 0.035147 14.327578 -1.358357 -5.004463 -7.594173 -0.328200 0.000000 -1.358800
4.621343 17.389265 2.585414 31.715375 70.412854 49.884073 -9.540543 2.377608 1.282423 -6.317679 3.452146 -26.649922 -0.773348 1.254575 37.522838 1.975132 14.080865 4.453843 2.904399 0.000000 -27.030300 10.459935 -2.336452 3.262918 13.153985 5.954012 -11.640805 1.516400 0.019824 13.671589 -1.143476 -4.349545 -5.921417 -0.475900 -0.000000 -2.419200
4.786874 17.419968 2.684312 29.734519 69.439122 48.358218 -9.444919 2.272334 1.481650 -6.699278 2.535771 -27.544801 -0.900325 1.162382 36.045632 1.930314 13.640191 3.715954 2.698800 0.000000 -27.016600 10.490624 -2.415840 3.307070 12.953157 6.265505 -11.124523 1.498223 -0.004699 13.112601 -0.947074 -3.736199 -4.245020 -0.588300 0.000000 -3.574600
4.953425 17.447053 2.782348 27.880215 68.469723 46.982107 -9.345228 2.164949 1.705388 -6.995389 1.517004 -28.428115 -1.027491 1.062204 34.468100 1.886579 13.182677 3.042076 2.513100 -0.000000 -26.829500 10.509787 -2.486813 3.360311 12.753887 6.688576 -10.640774 1.471945 -0.037810 12.636546 -0.768139 -3.162070 -2.555764 -0.668500 0.000000 -4.934100
5.120782 17.470379 2.879822 26.155539 67.514277 45.745335 -9.240931 2.056224 1.946741 -7.202726 0.423910 -29.294355 -1.154133 0.954633 32.803131 1.842254 12.704871 2.437373 2.346400 0.000000 -26.475300 10.519095 -2.548984 3.416892 12.557763 7.207474 -10.170435 1.438039 -0.079047 12.230287 -0.605339 -2.621271 -0.846500 -0.718500 0.000000 -6.579199
5.288827 17.489866 2.977099 24.563463 66.580679 44.638301 -9.131611 1.947405 2.196520 -7.329742 -0.700970 -30.143392 -1.280873 0.840351 31.065140 1.795734 12.204849 1.900550 2.196600 0.000000 -26.023901 10.520963 -2.602460 3.470850 12.366331 7.797646 -9.699418 1.397278 -0.127832 11.882394 -0.457517 -2.106779 0.887419 -0.738800 0.000000 -8.565300
5.457512 17.505450 3.074760 23.109764 65.675900 43.653603 -9.016550 1.840594 2.444534 -7.399764 -1.803525 -30.977446 -1.410071 0.719598 29.267989 1.745434 11.680598 1.421655 2.059899 0.000000 -25.579400 10.519100 -2.648393 3.517609 12.179564 8.427755 -9.219469 1.350509 -0.183584 11.586660 -0.323875 -1.610281 2.642478 -0.728700 -0.000000 -10.900299
5.626926 17.517198 3.173416 21.798369 64.804403 42.783892 -8.895211 1.738384 2.680045 -7.450133 -2.822294 -31.800617 -1.545980 0.592159 27.423228 1.689901 11.129246 0.984726 1.931800 -0.000001 -25.275099 10.517637 -2.688594 3.554268 11.996206 9.064187 -8.728793 1.298471 -0.245542 11.341987 -0.204175 -1.124598 4.407075 -0.686700 -0.000000 -13.545900
5.797264 17.525133 3.273746 20.629442 63.968158 42.020768 -8.767510 1.643723 2.893043 -7.529224 -3.694581 -32.616458 -1.694630 0.457170 25.538631 1.627456 10.544215 0.570452 1.806700 0.000000 -25.251500 10.520558 -2.725483 3.580088 11.814237 9.674547 -8.231444 1.241869 -0.312677 11.152713 -0.098466 -0.643352 6.159816 -0.611000 -0.000000 -16.417600
5.968863 17.529260 3.376288 19.598961 63.166916 41.353603 -8.634071 1.559555 3.074841 -7.691484 -4.362252 -33.426406 -1.863310 0.313295 23.619086 1.555876 9.913590 0.160669 1.679600 0.000000 -25.641500 10.531089 -2.761766 3.596179 11.631308 10.230963 -7.734688 1.181255 -0.383799 11.027075 -0.006903 -0.162342 7.873195 -0.501101 0.000000 -19.402300
6.142129 17.529565 3.481470 18.696465 62.398393 40.767753 -8.496339 1.488563 3.218601 -7.991303 -4.777204 -34.229098 -2.059959 0.159034 21.670830 1.471801 9.216372 -0.262123 1.544800 -0.000000 -26.522401 10.551195 -2.800156 3.604797 11.446124 10.710392 -7.247894 1.117544 -0.457519 10.977188 0.070848 0.322843 9.511187 -0.357000 -0.000000 -22.336600
6.317519 17.525899 3.589480 17.905535 61.659373 40.244036 -8.356943 1.433012 3.319649 -8.475368 -4.906717 -35.021232 -2.291462 -0.006421 19.705620 1.370841 8.425375 -0.704818 1.398100 -0.000000 -27.952600 10.581006 -2.843502 3.609027 11.259710 11.097890 -6.777791 1.051419 -0.532750 11.013362 0.135429 0.813047 11.049614 -0.181399 -0.000000 -25.125001
